<?xml version="1.0" standalone="yes"?>
<svg xmlns="http://www.w3.org/2000/svg" width="512" height="512">
<path style="fill:#FFC000; stroke:none;" d="M0 0L8.83025 102L30.1698 339L42 470L195 500.4L256 511.971L317 500.4L470 470L481.83 339L503.17 102L512 0L0 0z"/>
<path style="fill:#ffffff; stroke:none;" d="M0 11L0 512L251 512L251 511L195 500.2L88 478.8L42 470L32.1698 360L13.1698 151L4.16975 52L0 11M511 11L502.17 112L480.83 349L470 470L424 478.8L317 500.2L261 511L261 512L512 512L512 157L512 55C512 42.5323 515.807 22.4559 511 11M192 86L192 369C184.811 368.072 167.894 367.357 162.589 362.262C159.593 359.384 160.187 353.758 159.911 350C159.178 340.002 158.257 329.947 157 320L115 320C119.573 344.634 121.983 372.945 122 398L234 420L234 86L192 86M278 86L278 277L359 277L353.17 337L349.987 361.567L335 366.2L295 374.2L279.028 378.589L278 390L278 420L390 398L404 235L320 235L320 128L414 128L418 86L278 86z"/>
</svg>
